<mxfile host="app.diagrams.net" agent="Mozilla/5.0 (X11; Linux x86_64) AppleWebKit/537.36 (KHTML, like Gecko) Chrome/134.0.0.0 Safari/537.36" version="26.1.1">
  <diagram name="DFD Diagram" id="xpTBKYFO356zz7s55ZkE">
    <mxGraphModel dx="1434" dy="792" grid="1" gridSize="10" guides="1" tooltips="1" connect="1" arrows="1" fold="1" page="1" pageScale="1" pageWidth="850" pageHeight="1100" math="0" shadow="0">
      <root>
        <mxCell id="0" />
        <mxCell id="1" parent="0" />
        <mxCell id="tvUU3hq3W3oxnKgRSxzY-1" value="DFD Level 0 - Konteks Sistem" style="text;html=1;fontSize=14;fontColor=#000000;" vertex="1" parent="1">
          <mxGeometry x="40" y="10" width="300" height="30" as="geometry" />
        </mxCell>
        <mxCell id="tvUU3hq3W3oxnKgRSxzY-2" value="Pelanggan (Customers)" style="rounded=1;whiteSpace=wrap;html=1;fillColor=#dae8fc;strokeColor=#6c8ebf;" vertex="1" parent="1">
          <mxGeometry x="40" y="50" width="140" height="60" as="geometry" />
        </mxCell>
        <mxCell id="tvUU3hq3W3oxnKgRSxzY-3" value="Sistem Undangan (Invitation Sys)" style="ellipse;whiteSpace=wrap;html=1;fillColor=#fff2cc;strokeColor=#d6b656;" vertex="1" parent="1">
          <mxGeometry x="335" y="50" width="180" height="60" as="geometry" />
        </mxCell>
        <mxCell id="tvUU3hq3W3oxnKgRSxzY-4" value="Order Data" style="edgeStyle=elbowEdgeStyle;rounded=0;html=1;strokeColor=#000000;" edge="1" parent="1" source="tvUU3hq3W3oxnKgRSxzY-2" target="tvUU3hq3W3oxnKgRSxzY-3">
          <mxGeometry relative="1" as="geometry">
            <mxPoint as="offset" />
          </mxGeometry>
        </mxCell>
        <mxCell id="tvUU3hq3W3oxnKgRSxzY-5" value="Notifikasi / RSVP" style="edgeStyle=elbowEdgeStyle;rounded=0;html=1;strokeColor=#000000;" edge="1" parent="1" source="tvUU3hq3W3oxnKgRSxzY-3" target="tvUU3hq3W3oxnKgRSxzY-2">
          <mxGeometry relative="1" as="geometry">
            <mxPoint as="offset" />
          </mxGeometry>
        </mxCell>
        <mxCell id="tvUU3hq3W3oxnKgRSxzY-6" value="DFD Level 1 - Rincian Proses" style="text;html=1;fontSize=14;fontColor=#000000;" vertex="1" parent="1">
          <mxGeometry x="40" y="140" width="300" height="30" as="geometry" />
        </mxCell>
        <mxCell id="tvUU3hq3W3oxnKgRSxzY-7" value="Pelanggan" style="rounded=1;whiteSpace=wrap;html=1;fillColor=#dae8fc;strokeColor=#6c8ebf;" vertex="1" parent="1">
          <mxGeometry x="40" y="190" width="140" height="60" as="geometry" />
        </mxCell>
        <mxCell id="tvUU3hq3W3oxnKgRSxzY-8" value="Input Data Pemesanan" style="rounded=1;whiteSpace=wrap;html=1;fillColor=#e1d5e7;strokeColor=#9673a6;" vertex="1" parent="1">
          <mxGeometry x="280" y="140" width="160" height="60" as="geometry" />
        </mxCell>
        <mxCell id="tvUU3hq3W3oxnKgRSxzY-9" value="Data Store: Orders" style="shape=process;whiteSpace=wrap;html=1;fillColor=#f8cecc;strokeColor=#b85450;" vertex="1" parent="1">
          <mxGeometry x="650" y="190" width="160" height="60" as="geometry" />
        </mxCell>
        <mxCell id="tvUU3hq3W3oxnKgRSxzY-10" value="Data Store: Customers" style="shape=process;whiteSpace=wrap;html=1;fillColor=#f8cecc;strokeColor=#b85450;" vertex="1" parent="1">
          <mxGeometry x="30" y="410" width="160" height="60" as="geometry" />
        </mxCell>
        <mxCell id="tvUU3hq3W3oxnKgRSxzY-11" value="Proses Undangan (Create Invitation)" style="rounded=1;whiteSpace=wrap;html=1;fillColor=#e1d5e7;strokeColor=#9673a6;" vertex="1" parent="1">
          <mxGeometry x="180" y="300" width="200" height="60" as="geometry" />
        </mxCell>
        <mxCell id="tvUU3hq3W3oxnKgRSxzY-12" value="Data Store: Invitations" style="shape=process;whiteSpace=wrap;html=1;fillColor=#f8cecc;strokeColor=#b85450;" vertex="1" parent="1">
          <mxGeometry x="640" y="270" width="160" height="60" as="geometry" />
        </mxCell>
        <mxCell id="tvUU3hq3W3oxnKgRSxzY-13" value="Pengiriman Undangan&#xa;(Pelanggan/Tamu)" style="rounded=1;whiteSpace=wrap;html=1;fillColor=#dae8fc;strokeColor=#6c8ebf;" vertex="1" parent="1">
          <mxGeometry x="540" y="480" width="180" height="60" as="geometry" />
        </mxCell>
        <mxCell id="tvUU3hq3W3oxnKgRSxzY-14" value="Input RSVP/Detail Tamu" style="rounded=1;whiteSpace=wrap;html=1;fillColor=#e1d5e7;strokeColor=#9673a6;" vertex="1" parent="1">
          <mxGeometry x="120" y="640" width="180" height="60" as="geometry" />
        </mxCell>
        <mxCell id="tvUU3hq3W3oxnKgRSxzY-15" value="Proses RSVP/Guest (Update Invitation Guests)" style="rounded=1;whiteSpace=wrap;html=1;fillColor=#e1d5e7;strokeColor=#9673a6;" vertex="1" parent="1">
          <mxGeometry x="60" y="900" width="220" height="60" as="geometry" />
        </mxCell>
        <mxCell id="tvUU3hq3W3oxnKgRSxzY-16" value="Data Store: Invitation Guests" style="shape=process;whiteSpace=wrap;html=1;fillColor=#f8cecc;strokeColor=#b85450;" vertex="1" parent="1">
          <mxGeometry x="450" y="800" width="180" height="60" as="geometry" />
        </mxCell>
        <mxCell id="tvUU3hq3W3oxnKgRSxzY-17" value="(1) Data Pemesanan" style="edgeStyle=orthogonalEdgeStyle;rounded=0;html=1;strokeColor=#000000;" edge="1" parent="1" source="tvUU3hq3W3oxnKgRSxzY-7" target="tvUU3hq3W3oxnKgRSxzY-8">
          <mxGeometry relative="1" as="geometry" />
        </mxCell>
        <mxCell id="tvUU3hq3W3oxnKgRSxzY-18" value="(2) Data Order" style="edgeStyle=orthogonalEdgeStyle;rounded=0;html=1;strokeColor=#000000;" edge="1" parent="1" source="tvUU3hq3W3oxnKgRSxzY-8" target="tvUU3hq3W3oxnKgRSxzY-9">
          <mxGeometry relative="1" as="geometry" />
        </mxCell>
        <mxCell id="tvUU3hq3W3oxnKgRSxzY-19" value="(3) Validasi &amp; Konfirmasi" style="edgeStyle=orthogonalEdgeStyle;rounded=0;html=1;strokeColor=#000000;" edge="1" parent="1" source="tvUU3hq3W3oxnKgRSxzY-9" target="tvUU3hq3W3oxnKgRSxzY-11">
          <mxGeometry relative="1" as="geometry" />
        </mxCell>
        <mxCell id="tvUU3hq3W3oxnKgRSxzY-20" value="(4) Data Customer" style="edgeStyle=orthogonalEdgeStyle;rounded=0;html=1;strokeColor=#000000;" edge="1" parent="1" source="tvUU3hq3W3oxnKgRSxzY-10" target="tvUU3hq3W3oxnKgRSxzY-11">
          <mxGeometry relative="1" as="geometry" />
        </mxCell>
        <mxCell id="tvUU3hq3W3oxnKgRSxzY-21" value="(4b) Simpan Undangan" style="edgeStyle=orthogonalEdgeStyle;rounded=0;html=1;strokeColor=#000000;" edge="1" parent="1" source="tvUU3hq3W3oxnKgRSxzY-11" target="tvUU3hq3W3oxnKgRSxzY-12">
          <mxGeometry relative="1" as="geometry" />
        </mxCell>
        <mxCell id="tvUU3hq3W3oxnKgRSxzY-22" value="(5) Kirim Undangan" style="edgeStyle=orthogonalEdgeStyle;rounded=0;html=1;strokeColor=#000000;" edge="1" parent="1" source="tvUU3hq3W3oxnKgRSxzY-11" target="tvUU3hq3W3oxnKgRSxzY-13">
          <mxGeometry relative="1" as="geometry" />
        </mxCell>
        <mxCell id="tvUU3hq3W3oxnKgRSxzY-23" value="(6) RSVP / Detail" style="edgeStyle=orthogonalEdgeStyle;rounded=0;html=1;strokeColor=#000000;" edge="1" parent="1" source="tvUU3hq3W3oxnKgRSxzY-13" target="tvUU3hq3W3oxnKgRSxzY-14">
          <mxGeometry relative="1" as="geometry" />
        </mxCell>
        <mxCell id="tvUU3hq3W3oxnKgRSxzY-24" value="(7) Data RSVP" style="edgeStyle=orthogonalEdgeStyle;rounded=0;html=1;strokeColor=#000000;" edge="1" parent="1" source="tvUU3hq3W3oxnKgRSxzY-14" target="tvUU3hq3W3oxnKgRSxzY-15">
          <mxGeometry relative="1" as="geometry" />
        </mxCell>
        <mxCell id="tvUU3hq3W3oxnKgRSxzY-25" value="(7) Simpan RSVP" style="edgeStyle=orthogonalEdgeStyle;rounded=0;html=1;strokeColor=#000000;" edge="1" parent="1" source="tvUU3hq3W3oxnKgRSxzY-15" target="tvUU3hq3W3oxnKgRSxzY-16">
          <mxGeometry relative="1" as="geometry" />
        </mxCell>
      </root>
    </mxGraphModel>
  </diagram>
</mxfile>
